<svg width="165" height="43" viewBox="0 0 165 43" fill="none" xmlns="http://www.w3.org/2000/svg">
<path d="M25.2286 41.1979L12.7305 41.2158C12.6826 41.2133 12.5842 41.2562 12.5362 41.2536L3.16395 41.2431L3.06808 41.2381C2.49287 41.208 2.04116 40.6558 2.02338 40.0782L2.01753 2.59897L2.02256 2.50314C2.0527 1.92812 2.60761 1.42864 3.18282 1.45878L11.932 1.43665L12.1237 1.44669L24.9094 1.44384L25.0052 1.44886C25.5805 1.479 26.0801 2.03372 26.0979 2.61126L26.0443 10.9691L26.0392 11.065C26.0091 11.64 25.4542 12.1395 24.8765 12.1572L13.6776 12.1471L13.7013 16.2807L22.2815 16.7302C22.8567 16.7603 23.4068 17.2696 23.3741 17.8926L23.3691 17.9884L22.8889 25.3149C22.8058 25.9832 22.2988 26.4852 21.6277 26.4501L13.6706 26.0332L13.6767 30.5022L25.3574 30.4895L25.4532 30.4945C26.0764 30.5271 26.576 31.0819 26.5459 31.6569L26.4443 40.0122C26.4116 40.6352 25.9022 41.1851 25.2286 41.1979Z" fill="white"/>
<path d="M54.632 16.6424L52.376 22.4485C52.184 23.0243 51.656 23.5041 51.08 23.5041C50.888 23.5041 50.648 23.4082 50.456 23.2642C49.592 22.5444 47.912 22.0166 46.232 22.0166C44.984 22.0166 40.808 22.3045 40.808 27.5348C40.808 30.7497 43.112 32.861 46.232 32.861C48.296 32.861 50.696 31.9493 53 29.838C53.288 29.5501 53.72 29.3102 54.152 29.3102C54.488 29.3102 54.872 29.5021 55.208 30.0779C56.072 31.7094 56.648 32.5731 57.416 34.1566C57.56 34.4445 57.656 34.7804 57.656 35.1163C57.656 35.6921 57.416 36.2199 56.84 36.7957C52.952 40.4905 48.344 42.1219 44.024 42.1219C36.056 42.1219 29 36.5558 29 28.1106C29 17.3622 37.592 12.9956 45.512 12.9956C50.84 12.9956 54.68 15.1069 54.68 16.3065C54.68 16.4025 54.68 16.5464 54.632 16.6424Z" fill="white"/>
<path d="M93.1158 37.7635L88.5558 41.5062C88.0278 41.9381 87.5478 42.082 87.1158 42.082C86.9238 42.082 78.0438 40.4506 78.0438 30.7098C78.0438 24.9037 75.3558 22.8404 71.8998 22.8404H71.6598V40.2586C71.6598 40.8344 71.2278 41.2663 70.6998 41.2663H61.0998C60.5238 41.2663 60.0918 40.8344 60.0918 40.2586V1.00766C60.0918 0.47984 60.5238 0 61.0998 0H70.6998C71.2278 0 71.6598 0.47984 71.6598 1.00766V13.4835C72.2358 13.4355 72.8118 13.4355 73.3398 13.4355C82.3638 13.4355 89.5638 18.8098 89.7078 28.3106C89.7558 31.4296 90.3798 33.8288 92.7318 35.7002C93.0198 35.9401 93.5478 36.4199 93.5478 36.9477C93.5478 37.1877 93.4518 37.4756 93.1158 37.7635Z" fill="white"/>
<path d="M108.924 12.9556C119.532 12.9556 124.092 21.2567 124.092 27.4946C124.092 36.8513 114.588 42.0813 107.772 42.0815C99.9485 42.0815 93.084 36.4193 93.084 27.9741C93.0842 18.0898 100.476 12.9556 108.924 12.9556ZM108.781 21.8325C104.75 21.8328 103.598 25.2397 103.598 27.3989C103.598 30.7097 106.19 32.9165 108.926 32.9165C112.334 32.9164 113.87 30.1339 113.87 27.3989C113.87 26.4872 113.677 21.8325 108.781 21.8325Z" fill="white"/>
<path d="M138.175 41.2957L128.563 41.2727L128.467 41.2676C127.94 41.24 127.579 40.7887 127.559 40.2591L127.584 16.86C127.614 16.285 128.02 15.8739 128.598 15.8561L138.21 15.8791L138.305 15.8842C138.785 15.9093 139.194 16.3631 139.168 16.8423L139.141 40.2893L139.136 40.3851C139.111 40.8643 138.657 41.2729 138.175 41.2957ZM138.175 41.2957L128.563 41.2727L128.467 41.2676C127.94 41.24 127.579 40.7887 127.559 40.2591L127.584 16.86" fill="white"/>
<path d="M133.145 12.4999C136.44 12.4999 139.125 9.81607 139.125 6.52225C139.125 3.18776 136.44 0.503906 133.145 0.503906C129.81 0.503906 127.125 3.18776 127.125 6.52225C127.125 9.81607 129.81 12.4999 133.145 12.4999Z" fill="white"/>
<path d="M154.465 41.4729L144.903 41.292C144.328 41.2518 143.874 40.8655 143.911 40.3363L144.174 17.3082C144.211 16.779 144.673 16.3681 145.2 16.4049L150.773 16.5285C153.411 15.9595 155.926 15.7807 158.32 15.9481C159.948 16.0619 161.516 16.3488 162.978 16.7613C163.684 16.9879 163.947 17.3608 163.91 17.8901C163.898 18.0665 163.837 18.2395 163.774 18.4567L161.95 24.5784C161.764 25.1858 161.263 25.4611 160.689 25.4209C160.545 25.4108 160.356 25.3534 160.168 25.2959C159.417 25.0218 158.613 24.8326 157.798 24.7757C157.128 24.7288 156.452 24.7702 155.673 24.893L155.491 40.5696L155.485 40.6578C155.451 41.1429 154.992 41.5098 154.465 41.4729Z" fill="white"/>
</svg>
