<svg width="18" height="18" viewBox="0 0 18 18" fill="none" xmlns="http://www.w3.org/2000/svg">
<path fill-rule="evenodd" clip-rule="evenodd" d="M9 17C13.4182 17 17 13.4182 17 9C17 4.58172 13.4182 1 9 1C4.58172 1 1 4.58172 1 9C1 13.4182 4.58172 17 9 17ZM5.94808 12.0006C6.02864 11.6792 6.35452 11.4839 6.67595 11.5645C7.58016 11.7911 8.61856 11.7939 9.6728 11.5114C10.727 11.229 11.6249 10.7074 12.2946 10.059C12.5327 9.82848 12.9126 9.83464 13.1431 10.0727C13.3736 10.3108 13.3674 10.6906 13.1294 10.9211C12.8514 11.1902 12.5438 11.4394 12.2102 11.6641L12.3366 11.9216C12.6315 12.5225 12.3778 13.2485 11.7729 13.5348C11.1799 13.8155 10.4714 13.568 10.1824 12.979L10.0254 12.6592L9.98336 12.6706C8.73912 13.004 7.49328 13.0065 6.38421 12.7285C6.06278 12.6479 5.86752 12.3221 5.94808 12.0006ZM11.7803 7.01258C11.9518 7.65272 11.7449 8.2644 11.3182 8.37872C10.8914 8.49312 10.4063 8.06688 10.2348 7.42672C10.0633 6.78653 10.2702 6.17488 10.697 6.06052C11.1238 5.94617 11.6087 6.37242 11.7803 7.01258ZM6.6818 9.62112C7.10857 9.5068 7.31549 8.89512 7.14395 8.25496C6.97242 7.6148 6.48741 7.18855 6.06063 7.3029C5.63386 7.41728 5.42694 8.02888 5.59847 8.66904C5.77 9.3092 6.25502 9.73552 6.6818 9.62112Z" fill="#DDDEDE"/>
</svg>
