<svg width="18" height="18" viewBox="0 0 18 18" fill="none" xmlns="http://www.w3.org/2000/svg">
<g opacity="0.95">
<path d="M14 1C15.6569 1 17 2.34315 17 4V14C17 15.6569 15.6569 17 14 17H4C2.34315 17 1 15.6569 1 14V4C1 2.34315 2.34315 1 4 1H14ZM5.80078 6.13281C5.18209 6.13281 4.64611 6.27194 4.19238 6.54883C3.74456 6.81988 3.39595 7.19943 3.14844 7.68848C2.90098 8.17751 2.7774 8.74355 2.77734 9.38574C2.77734 10.0044 2.901 10.553 3.14844 11.0303C3.40184 11.5017 3.75908 11.8705 4.21875 12.1357C4.68413 12.4007 5.23498 12.5331 5.87109 12.5332C6.41916 12.5332 6.89998 12.4125 7.3125 12.1709C7.73087 11.9293 8.05533 11.5787 8.28516 11.1191C8.52083 10.6537 8.63862 10.0847 8.63867 9.41309V9.10352H5.95117V9.75781H7.85156C7.83382 10.4118 7.64844 10.9218 7.29492 11.2871C6.94723 11.6465 6.46925 11.8262 5.8623 11.8262C5.40278 11.8261 5.00187 11.7286 4.66016 11.5342C4.32437 11.3338 4.06256 11.0537 3.87402 10.6943C3.68544 10.329 3.59082 9.89545 3.59082 9.39453C3.59087 8.87034 3.68267 8.41998 3.86523 8.04297C4.04792 7.65991 4.30087 7.36736 4.625 7.16699C4.955 6.96666 5.34705 6.86719 5.80078 6.86719C6.2722 6.86719 6.65555 6.97245 6.9502 7.18457C7.25062 7.39074 7.44475 7.67394 7.5332 8.0332H8.44434C8.30876 7.43815 8.00747 6.97257 7.54199 6.63672C7.07648 6.30094 6.49604 6.13281 5.80078 6.13281ZM9.59668 6.23926V12.4268H10.3926V6.23926H9.59668ZM11.6416 6.23926V12.4268H12.4375V9.64258H14.9746V9.00586H12.4375V6.89355H15.4434V6.23926H11.6416Z" fill="white" fill-opacity="0.9"/>
</g>
</svg>
