<svg width="17" height="17" viewBox="0 0 17 17" fill="none" xmlns="http://www.w3.org/2000/svg">
<path d="M9.35606 2.08225C8.85585 1.67896 8.14399 1.67896 7.64379 2.08225L2.9318 5.88132C2.60821 6.1422 2.41992 6.53659 2.41992 6.95348V13.8452C2.41992 14.6043 3.0324 15.2198 3.78792 15.2198H5.34369C6.09922 15.2198 6.71169 14.6043 6.71169 13.8452V10.7987C6.71169 10.3104 7.112 9.91452 7.6058 9.91452H9.39404C9.88784 9.91452 10.2882 10.3104 10.2882 10.7987V13.8452C10.2882 14.6043 10.9006 15.2198 11.6562 15.2198H13.2119C13.9675 15.2198 14.5799 14.6043 14.5799 13.8452V6.95348C14.5799 6.53656 14.3917 6.1422 14.0681 5.88132L9.35606 2.08225Z" fill="white"/>
</svg>
