<svg width="16" height="16" viewBox="0 0 16 16" fill="none" xmlns="http://www.w3.org/2000/svg">
<g clip-path="url(#clip0_4642_14)">
<path d="M13.0166 0.941406C14.1446 0.941536 15.0586 1.85631 15.0586 2.98438V13.0166C15.0585 14.1446 14.1446 15.0585 13.0166 15.0586H2.98438C1.85631 15.0586 0.941536 14.1446 0.941406 13.0166V2.98438C0.941406 1.85623 1.85623 0.941406 2.98438 0.941406H13.0166ZM4.18945 2.53027C3.48436 2.53027 2.91211 3.10155 2.91211 3.80664V6.43262C2.91226 7.13758 3.48445 7.70898 4.18945 7.70898H5.97168C6.03633 8.70092 6.91729 9.48725 7.99805 9.4873C9.07885 9.4873 9.95975 8.70095 10.0244 7.70898H11.8818C12.5867 7.70888 13.1581 7.13752 13.1582 6.43262V3.80664C13.1582 3.10161 12.5868 2.53037 11.8818 2.53027H4.18945Z" fill="white"/>
</g>
<defs>
<clipPath id="clip0_4642_14">
<rect width="16" height="16" fill="white"/>
</clipPath>
</defs>
</svg>
