<svg width="17" height="17" viewBox="0 0 17 17" fill="none" xmlns="http://www.w3.org/2000/svg">
<path d="M4.33333 6.16667H12.6667M4.33333 9.5H8.5M16 15.3333L13.2297 13.9482C13.0197 13.8432 12.9147 13.7907 12.8047 13.7537C12.707 13.7208 12.6064 13.6971 12.5043 13.6828C12.3893 13.6667 12.2719 13.6667 12.0372 13.6667H3.66667C2.73324 13.6667 2.26653 13.6667 1.91002 13.485C1.59641 13.3253 1.34144 13.0703 1.18166 12.7567C1 12.4002 1 11.9334 1 11V4.66667C1 3.73324 1 3.26653 1.18166 2.91002C1.34144 2.59641 1.59641 2.34144 1.91002 2.18166C2.26653 2 2.73325 2 3.66667 2H13.3333C14.2667 2 14.7335 2 15.09 2.18166C15.4036 2.34144 15.6586 2.59641 15.8183 2.91002C16 3.26653 16 3.73325 16 4.66667V15.3333Z" stroke="white" stroke-opacity="0.9" stroke-width="1.375" stroke-linecap="round" stroke-linejoin="round"/>
</svg>
