<svg width="18" height="18" viewBox="0 0 18 18" fill="none" xmlns="http://www.w3.org/2000/svg">
<path fill-rule="evenodd" clip-rule="evenodd" d="M1.0871 5.33175C1.07471 5.44578 1.06836 5.56163 1.06836 5.67895V12.3201C1.06836 14.076 2.49184 15.4995 4.2478 15.4995H13.7527C15.5086 15.4995 16.9321 14.076 16.9321 12.3201V5.67895C16.9321 5.56146 16.9258 5.44546 16.9133 5.33127L10.7551 9.97684C9.71619 10.7605 8.28362 10.7605 7.24472 9.97684L1.0871 5.33175ZM16.3127 3.79306C15.7337 3.00844 14.8026 2.49951 13.7527 2.49951H9.00025H4.2478C3.19771 2.49951 2.26652 3.00858 1.68756 3.79339L8.20209 8.70773C8.67432 9.06396 9.32549 9.06396 9.79772 8.70773L16.3127 3.79306Z" fill="#7C7079"/>
</svg>
