<svg width="16" height="16" viewBox="0 0 16 16" fill="none" xmlns="http://www.w3.org/2000/svg">
<path d="M15.1082 14.2192C15.2364 14.4233 15.2065 14.6889 15.0361 14.8593L14.8783 15.0171C14.7079 15.1874 14.4424 15.2174 14.2384 15.0893L11.2882 13.2367C11.0072 13.0603 10.963 12.6687 11.1976 12.4341L12.4524 11.1793C12.6869 10.9448 13.0785 10.9889 13.255 11.2697L15.1082 14.2192ZM6.37033 1.3805C6.81007 0.940836 7.52331 0.940916 7.9631 1.3805C8.14671 1.56411 8.32632 1.85532 8.43576 2.19495C8.71359 3.05734 8.78531 4.11284 9.42599 4.75354L9.79611 5.12366C10.0938 5.42135 10.5363 5.50054 10.9553 5.45862C11.855 5.36851 12.6714 5.75119 13.2736 6.35315C13.8156 6.89502 13.8164 7.77408 13.2746 8.31604L12.1263 9.46339C12.1239 9.46575 12.1235 9.46943 12.1252 9.4723V9.4723C12.1269 9.47516 12.1265 9.47884 12.1241 9.4812L9.49809 12.1072C9.49591 12.1094 9.49251 12.1097 9.48996 12.108V12.108C9.4874 12.1063 9.484 12.1067 9.48183 12.1088L8.16818 13.4215C7.62615 13.9633 6.74724 13.9624 6.20529 13.4205C5.69591 12.9112 5.18805 12.193 5.25216 11.1549C5.27573 10.7726 5.18391 10.38 4.9133 10.109L4.45236 9.64808C3.83063 9.02645 2.80622 8.9682 1.98849 8.64515C1.68329 8.5245 1.41434 8.3356 1.21017 8.13147C0.771029 7.6919 0.771149 6.97933 1.21017 6.53968L6.37033 1.3805Z" fill="white"/>
</svg>
