<svg width="18" height="18" viewBox="0 0 18 18" fill="none" xmlns="http://www.w3.org/2000/svg">
<g opacity="0.95" clip-path="url(#clip0_3284_307)">
<path opacity="0.9" d="M9.00198 1.61213C9.07682 1.38181 9.40267 1.38181 9.47751 1.61213L11.2107 6.94638C11.2442 7.04938 11.3402 7.11912 11.4485 7.11912H17.0572C17.2994 7.11912 17.4001 7.42903 17.2042 7.57138L12.6666 10.8681C12.579 10.9318 12.5423 11.0446 12.5758 11.1476L14.309 16.4819C14.3838 16.7122 14.1202 16.9037 13.9243 16.7614L9.38669 13.4646C9.29907 13.401 9.18042 13.401 9.0928 13.4646L4.55522 16.7614C4.35929 16.9037 4.09567 16.7122 4.17051 16.4819L5.90371 11.1476C5.93718 11.0446 5.90052 10.9318 5.81289 10.8681L1.27531 7.57138C1.07938 7.42903 1.18008 7.11912 1.42226 7.11912H7.03102C7.13932 7.11912 7.23531 7.04938 7.26878 6.94638L9.00198 1.61213Z" fill="white"/>
</g>
<defs>
<clipPath id="clip0_3284_307">
<rect width="17" height="17" fill="white" transform="translate(0.740234 0.5)"/>
</clipPath>
</defs>
</svg>
