<svg width="16" height="16" viewBox="0 0 16 16" fill="none" xmlns="http://www.w3.org/2000/svg">
<path fill-rule="evenodd" clip-rule="evenodd" d="M9.21277 1.10376C8.96039 1 8.64038 1 8.00038 1C7.36038 1 7.04038 1 6.78799 1.10376C6.45143 1.24212 6.18404 1.50749 6.04463 1.8415C5.981 1.99397 5.95609 2.17129 5.94634 2.42994C5.93202 2.81005 5.73561 3.16189 5.40369 3.35208C5.07176 3.54226 4.66654 3.53516 4.32769 3.35742C4.09711 3.23646 3.92992 3.1692 3.76505 3.14767C3.40388 3.10047 3.03862 3.19761 2.74961 3.41769C2.53286 3.58276 2.37286 3.85779 2.05286 4.40784C1.73287 4.9579 1.57287 5.23293 1.53721 5.50176C1.48966 5.8602 1.58754 6.2227 1.8093 6.50954C1.91052 6.64047 2.05277 6.75048 2.27356 6.88815C2.59813 7.09058 2.80697 7.43539 2.80695 7.81578C2.80693 8.19617 2.5981 8.54091 2.27356 8.74327C2.05274 8.88102 1.91046 8.9911 1.80923 9.12203C1.58747 9.40884 1.4896 9.7713 1.53715 10.1297C1.57281 10.3986 1.73281 10.6736 2.05279 11.2237C2.37279 11.7737 2.53279 12.0488 2.74954 12.2138C3.03855 12.4339 3.40381 12.531 3.76498 12.4838C3.92985 12.4623 4.09702 12.395 4.32758 12.2741C4.66646 12.0964 5.07171 12.0893 5.40365 12.2794C5.73559 12.4697 5.93202 12.8215 5.94634 13.2017C5.95609 13.4603 5.981 13.6376 6.04463 13.7901C6.18404 14.1241 6.45143 14.3895 6.78799 14.5278C7.04038 14.6316 7.36038 14.6316 8.00038 14.6316C8.64038 14.6316 8.96039 14.6316 9.21277 14.5278C9.54934 14.3895 9.81672 14.1241 9.9561 13.7901C10.0198 13.6376 10.0447 13.4603 10.0545 13.2016C10.0688 12.8215 10.2651 12.4697 10.5971 12.2794C10.929 12.0892 11.3343 12.0964 11.6731 12.2741C11.9037 12.395 12.0708 12.4622 12.2357 12.4838C12.5969 12.531 12.9621 12.4339 13.2511 12.2138C13.4679 12.0487 13.6279 11.7737 13.9479 11.2236C14.2679 10.6736 14.4279 10.3986 14.4636 10.1297C14.5111 9.7713 14.4132 9.40877 14.1915 9.12196C14.0902 8.99103 13.948 8.88095 13.7271 8.74327C13.4026 8.54091 13.1938 8.1961 13.1938 7.81571C13.1938 7.43533 13.4026 7.09065 13.7271 6.88829C13.948 6.75054 14.0903 6.64054 14.1916 6.50954C14.4133 6.22275 14.5112 5.86025 14.4637 5.5018C14.4279 5.23298 14.268 4.95795 13.948 4.40789C13.628 3.85784 13.468 3.58281 13.2512 3.41774C12.9622 3.19765 12.5969 3.10052 12.2358 3.14771C12.0709 3.16925 11.9037 3.2365 11.6732 3.35744C11.3343 3.53519 10.9291 3.5423 10.5971 3.3521C10.2652 3.16191 10.0688 2.81004 10.0544 2.42991C10.0446 2.17128 10.0198 1.99397 9.9561 1.8415C9.81672 1.50749 9.54934 1.24212 9.21277 1.10376ZM8.00038 9.86052C9.13828 9.86052 10.0607 8.94509 10.0607 7.81578C10.0607 6.68648 9.13828 5.77105 8.00038 5.77105C6.86249 5.77105 5.94008 6.68648 5.94008 7.81578C5.94008 8.94509 6.86249 9.86052 8.00038 9.86052Z" fill="white"/>
</svg>
