<svg width="18" height="18" viewBox="0 0 18 18" fill="none" xmlns="http://www.w3.org/2000/svg">
<g opacity="0.95">
<path fill-rule="evenodd" clip-rule="evenodd" d="M8.8705 2.85714V2.35H6.5C5.31259 2.35 4.35 3.31259 4.35 4.5V12.5C4.35 13.6874 5.31259 14.65 6.5 14.65H11.5C12.6874 14.65 13.65 13.6874 13.65 12.5V7.0321H13.0455C10.7397 7.0321 8.8705 5.16293 8.8705 2.85714ZM14.9092 5.68214C14.969 5.90018 15 6.12704 15 6.35714V12.5C15 14.433 13.433 16 11.5 16H6.5C4.567 16 3 14.433 3 12.5V4.5C3 2.567 4.567 1 6.5 1H9.5455C9.7752 1 10.0019 1.02963 10.2205 1.08681C10.6671 1.20364 11.0797 1.43547 11.4147 1.76441L14.2356 4.53496C14.5604 4.85395 14.791 5.25077 14.9092 5.68214ZM10.2205 2.53603C10.3098 2.58934 10.3933 2.65346 10.4687 2.72756L13.2896 5.49811C13.3472 5.55463 13.3985 5.61634 13.443 5.68214H13.0455C11.4853 5.68214 10.2205 4.41735 10.2205 2.85714V2.53603Z" fill="white" fill-opacity="0.9"/>
</g>
</svg>
